<?xml version="1.0" encoding="UTF-8"?>
<svg width="1200pt" height="1200pt" version="1.1" viewBox="0 0 1200 1200" xmlns="http://www.w3.org/2000/svg">
 <path d="m1189.5 711.98c-13.754-40.02-26.27-61.285-36.277-95.074-1.9453-6.5742-55.547-155.29-290.02-291.74-39-22.68-189.02-65.785-222.95-78.445-9.2539-4.6328-15.086-11.004-17.566-13.066-23.09-19.188-57.086-69.949-88.621-88.164-44.305-25.586-75.395-28.32-108.25-30.602-27.938-1.957-75.91-3.1797-122.62 14.914-46.754 18.047-60.145 52.176-61.344 63.445l-2.7461 19.57c7.6094 6.8398 12.672 18.84 12.672 29.891 0 10.727-6.5039 21.613-6.5039 36.109 0 18.527 7.3086 49.836 39.086 76.273 36.359 30.191 84.203 46.57 125.66 68.438 0.60156 0.38281 1.5 0.69531 2.2812 1.3789 42.875 36.109 12.875 80.207 12.875 80.207l-238.77-101.94c-77.41-39.168-138.6-19.176-178.34 39.758-2.9141 4.3203-3.7812 5.6289-6.9102 10.945-1.8477 3.1562-1.2969 7.4648 0.9375 9.2773 2.9648 2.3984 7.3906 0.63672 9.0703-1.4883 28.98-36.574 89.242-41.543 121.82-18.973 1.7031 1.1875 3.4336 2.4609 5.1133 3.7578 5.6406 21.359 1.3203 15.949 13.152 60.828 7.1289 26.82 31.043 46.848 31.043 46.848s186.37 175.86 205.32 193.25c27.406 25.152 86.125 36.898 135.39 19.141 19.609-7.0664 63.312-28.164 105.61-42.637 11.137-3.8164 17.004-1.4766 24.059 6.1562 10.691 11.594 18.422 19.273 41.879 43.32 5.5078 5.6523 6.7422 14.074 0 21.406l-116.39 132.09-0.78125 0.75781c-36.852 38.809-34.645 77.062-23.617 114.18 4.4141 14.855 15.371 33.059 26.508 42.672 2.8086 2.4844 5.2305 1.8477 7.3789 0.67188 2.4492-1.8828 1.9453-6.0859 1.2109-8.2578-16.223-48.168-4.6914-87.215 36.238-106.86 19.199 10.969 45.168 25.883 53.41 30.684 21.406 12.457 51.949 6.4922 64.859 3.0586 39.098-10.332 213.02-55.824 213.02-55.824 134.24-38.281 156.17-119.93 190.74-161.64 0.43359-0.5625 0.875-1.1055 1.2734-1.6445 18.539 3.6367 28.176 4.4531 39.805-5.1133 21.285-17.496 8.7695-47.531 1.2695-67.547zm-802.95-440.23c23.773 13.883 59.641 11.496 59.641 11.496s-8.8672 25.621-40.812 40.766c-16.512 7.8711-36.996 13.715-69.371 12.781-21.312-0.61328-40.273-12.023-49.441-25.871-11.281-16.895-13.105-37.211-13.105-37.211s10.633-1.2461 24.254-7.5586c13.668-6.3359 17.844-32.398 17.184-44.891-11.82-1.2109-28.477-1.1172-45.66 1.6094 0 0 1.8242-27.047 24.887-32.965 20.062-5.1484 19.98 5.9883 42.926 5.8203 1.3555-0.011719 3.7188-0.023438 5.2422-0.035157 5.0508-0.035156 11.52-1.6328 15.203-2.8555 15.422-5.0508 22.57-8.6406 41.473-7.8828 23.051 0.91016 49.848 5.207 59.352 38.016-27.469-4.043-53.113-5.8555-91.246-2.3867-0.28906 15.707-4.2578 37.293 19.477 51.168z" fill="#d6263d"/>
 <path d="m310.27 273.93c-3.1445 1.1758-5.2305 5.8555-4.957 9.0586 1.1992 13.777 5.4258 27.266 20.711 28.645 17.258 1.6445 23.914-12.793 23.004-28.812-0.085938-0.85156-0.38281-4.4141-2.0898-5.5781-16.461-12.637-31.004-5.4609-36.668-3.3125z" fill="#d6263d"/>
</svg>
